<svg xmlns="http://www.w3.org/2000/svg" viewBox="0 0 64 64">
  <defs>
    <linearGradient id="gas-bg" x1="0%" y1="0%" x2="100%" y2="100%">
      <stop offset="0%" stop-color="#1d2635"/>
      <stop offset="100%" stop-color="#0e131b"/>
    </linearGradient>
    <linearGradient id="gas-main" x1="0%" y1="0%" x2="100%" y2="100%">
      <stop offset="0%" stop-color="#8ef4ff"/>
      <stop offset="45%" stop-color="#2cc3ff"/>
      <stop offset="100%" stop-color="#0f69ff"/>
    </linearGradient>
  </defs>
  <rect width="64" height="64" rx="32" fill="url(#gas-bg)"/>
  <g transform="translate(16 8)">
    <path d="M16 3C25 12 30 20 30 28C30 37.4 23.7 45 16 45C8.3 45 2 37.4 2 28C2 20 7 12 16 3Z" fill="url(#gas-main)"/>
    <path d="M16 13C20.9 18.3 23.6 23 23.6 27.5C23.6 33.2 20.1 37.6 16 37.6C11.9 37.6 8.4 33.2 8.4 27.5C8.4 23 11.1 18.3 16 13Z" fill="#d8ffff" opacity=".85"/>
    <circle cx="16" cy="41" r="2.2" fill="#8ef4ff" opacity=".95"/>
  </g>
</svg>
